<mxfile host="Electron" agent="Mozilla/5.0 (X11; Linux x86_64) AppleWebKit/537.36 (KHTML, like Gecko) draw.io/27.0.9 Chrome/134.0.6998.205 Electron/35.4.0 Safari/537.36" version="27.0.9">
  <diagram name="Page-1" id="tJq3_8uTWeRsZMd6biTb">
    <mxGraphModel dx="815" dy="500" grid="1" gridSize="10" guides="1" tooltips="1" connect="1" arrows="1" fold="1" page="1" pageScale="1" pageWidth="850" pageHeight="1100" math="0" shadow="0">
      <root>
        <mxCell id="0" />
        <mxCell id="1" parent="0" />
        <mxCell id="fDNkfD79bKdtPTMNzMJa-1" value="Usuario" style="shape=umlActor;verticalLabelPosition=bottom;verticalAlign=top;html=1;" parent="1" vertex="1">
          <mxGeometry x="30" y="170" width="30" height="60" as="geometry" />
        </mxCell>
        <mxCell id="fDNkfD79bKdtPTMNzMJa-3" value="GestiÃ³n de usuario" style="swimlane;whiteSpace=wrap;html=1;" parent="1" vertex="1">
          <mxGeometry x="110" y="20" width="320" height="330" as="geometry">
            <mxRectangle x="170" y="90" width="140" height="30" as="alternateBounds" />
          </mxGeometry>
        </mxCell>
        <mxCell id="fDNkfD79bKdtPTMNzMJa-4" value="Actualizar su perfil" style="ellipse;whiteSpace=wrap;html=1;" parent="fDNkfD79bKdtPTMNzMJa-3" vertex="1">
          <mxGeometry x="90" y="90" width="150" height="60" as="geometry" />
        </mxCell>
        <mxCell id="fDNkfD79bKdtPTMNzMJa-5" value="Registrarse" style="ellipse;whiteSpace=wrap;html=1;" parent="fDNkfD79bKdtPTMNzMJa-3" vertex="1">
          <mxGeometry x="150" y="210" width="130" height="60" as="geometry" />
        </mxCell>
        <mxCell id="fDNkfD79bKdtPTMNzMJa-6" value="" style="endArrow=none;html=1;rounded=0;entryX=0.008;entryY=0.614;entryDx=0;entryDy=0;entryPerimeter=0;" parent="1" source="fDNkfD79bKdtPTMNzMJa-1" target="fDNkfD79bKdtPTMNzMJa-4" edge="1">
          <mxGeometry width="50" height="50" relative="1" as="geometry">
            <mxPoint x="60" y="210" as="sourcePoint" />
            <mxPoint x="180" y="160" as="targetPoint" />
          </mxGeometry>
        </mxCell>
        <mxCell id="fDNkfD79bKdtPTMNzMJa-9" value="" style="endArrow=none;html=1;rounded=0;entryX=0;entryY=0.5;entryDx=0;entryDy=0;" parent="1" source="fDNkfD79bKdtPTMNzMJa-1" target="fDNkfD79bKdtPTMNzMJa-5" edge="1">
          <mxGeometry width="50" height="50" relative="1" as="geometry">
            <mxPoint x="60" y="220" as="sourcePoint" />
            <mxPoint x="240" y="250" as="targetPoint" />
          </mxGeometry>
        </mxCell>
      </root>
    </mxGraphModel>
  </diagram>
</mxfile>
